<svg xmlns="http://www.w3.org/2000/svg" width="612" height="612"><path d="M565.861 233.266H338.424V32.934C338.424 14.753 323.668 0 305.49 0H46.139C27.96 0 13.207 14.753 13.207 32.934v546.133C13.207 597.245 27.96 612 46.141 612h259.35c.181 0 .347-.049.51-.049.182 0 .328.049.51.049h259.35c18.179 0 32.934-14.753 32.934-32.934V266.2c-.002-18.195-14.739-32.934-32.934-32.934zM272.556 546.133H79.072V65.868h193.484v480.265zm260.372 0H339.443v-247h193.484v247zM362.431 399.3v-46.651a8.236 8.236 0 018.233-8.233h46.65a8.236 8.236 0 018.233 8.233V399.3a8.236 8.236 0 01-8.233 8.233h-46.65a8.225 8.225 0 01-8.233-8.233zm84.409 0v-46.651a8.236 8.236 0 018.233-8.233h46.65a8.236 8.236 0 018.233 8.233V399.3a8.236 8.236 0 01-8.233 8.233h-46.65a8.225 8.225 0 01-8.233-8.233zm-84.409 93.317v-46.65a8.235 8.235 0 018.233-8.233h46.65a8.236 8.236 0 018.233 8.233v46.65a8.236 8.236 0 01-8.233 8.233h-46.65a8.225 8.225 0 01-8.233-8.233zm84.409 0v-46.65a8.235 8.235 0 018.233-8.233h46.65a8.236 8.236 0 018.233 8.233v46.65a8.236 8.236 0 01-8.233 8.233h-46.65a8.225 8.225 0 01-8.233-8.233zM102.045 399.3v-46.651a8.236 8.236 0 018.233-8.233h46.651a8.236 8.236 0 018.233 8.233V399.3a8.236 8.236 0 01-8.233 8.233h-46.653c-4.543 0-8.231-3.688-8.231-8.233zm84.407 0v-46.651a8.236 8.236 0 018.233-8.233h46.65a8.236 8.236 0 018.233 8.233V399.3a8.236 8.236 0 01-8.233 8.233h-46.65a8.236 8.236 0 01-8.233-8.233zm-84.407 93.317v-46.65a8.235 8.235 0 018.233-8.233h46.651a8.236 8.236 0 018.233 8.233v46.65a8.236 8.236 0 01-8.233 8.233h-46.653c-4.543.001-8.231-3.688-8.231-8.233zm84.407 0v-46.65a8.235 8.235 0 018.233-8.233h46.65a8.236 8.236 0 018.233 8.233v46.65a8.236 8.236 0 01-8.233 8.233h-46.65c-4.545.001-8.233-3.688-8.233-8.233zM102.045 157.8v-46.651a8.236 8.236 0 018.233-8.233h46.651a8.236 8.236 0 018.233 8.233V157.8a8.236 8.236 0 01-8.233 8.233h-46.653c-4.543.001-8.231-3.688-8.231-8.233zm84.407 0v-46.651a8.236 8.236 0 018.233-8.233h46.65a8.236 8.236 0 018.233 8.233V157.8a8.236 8.236 0 01-8.233 8.233h-46.65c-4.545.001-8.233-3.688-8.233-8.233zm-84.407 93.316v-46.651a8.236 8.236 0 018.233-8.233h46.651a8.236 8.236 0 018.233 8.233v46.651a8.236 8.236 0 01-8.233 8.233h-46.653c-4.543 0-8.231-3.688-8.231-8.233zm84.407 0v-46.651a8.236 8.236 0 018.233-8.233h46.65a8.236 8.236 0 018.233 8.233v46.651a8.236 8.236 0 01-8.233 8.233h-46.65a8.236 8.236 0 01-8.233-8.233z"/></svg>