<svg id="Layer_1" version="1.1" viewBox="0 0 512 512" xml:space="preserve" xmlns="http://www.w3.org/2000/svg"><style>.st0{fill:#14748a}</style><g id="XMLID_93_"><g id="XMLID_92_"><path class="st0" d="M21.1 380.5c-5 0-10-2.5-12.8-7.1-4.4-7.1-2.2-16.4 4.9-20.7l112.6-69.9c4.2-2.6 9.5-3 14.1-1l106.3 47.6L456 169.2c6.6-5 16.1-3.8 21.1 2.8s3.8 16.1-2.8 21.1l-217 165.6c-4.4 3.4-10.3 4-15.3 1.8l-107.2-47.9L29 378.2c-2.5 1.5-5.2 2.3-7.9 2.3z" id="XMLID_173_"/></g><path class="st0" id="XMLID_91_" d="M375 162.8l131-31.3-38.4 129.1z"/></g></svg>